<svg id="Layer_1" data-name="Layer 1" xmlns="http://www.w3.org/2000/svg" viewBox="0 0 512 512"><defs><style>.cls-1{fill:#ee3136;}</style></defs><path class="cls-1" d="M216,0h80a23.94,23.94,0,0,1,24,24V192h87.7c17.8,0,26.7,21.5,14.1,34.1L269.7,378.3a19.37,19.37,0,0,1-27.3,0L90.1,226.1C77.5,213.5,86.4,192,104.2,192H192V24A23.94,23.94,0,0,1,216,0ZM512,376V488a23.94,23.94,0,0,1-24,24H24A23.94,23.94,0,0,1,0,488V376a23.94,23.94,0,0,1,24-24H170.7l49,49a51.24,51.24,0,0,0,72.6,0l49-49H488A23.94,23.94,0,0,1,512,376ZM388,464a20,20,0,1,0-20,20A20.06,20.06,0,0,0,388,464Zm64,0a20,20,0,1,0-20,20A20.06,20.06,0,0,0,452,464Z"/></svg>